<svg width="24" height="24" viewBox="0 0 24 24" fill="none" xmlns="http://www.w3.org/2000/svg">
<g id="SVG">
<path id="Vector" d="M8.672 11.6998C9.44372 13.2936 10.7324 14.5791 12.328 15.3468C12.4457 15.4023 12.5758 15.4261 12.7055 15.4161C12.8353 15.4061 12.9602 15.3626 13.068 15.2898L15.413 13.7248C15.5165 13.6547 15.636 13.6118 15.7605 13.6003C15.885 13.5887 16.0104 13.6089 16.125 13.6588L20.512 15.5428C20.6622 15.6052 20.7876 15.7153 20.869 15.8561C20.9503 15.9969 20.983 16.1606 20.962 16.3218C20.8229 17.4071 20.2932 18.4045 19.4719 19.1275C18.6507 19.8505 17.5941 20.2495 16.5 20.2498C13.1185 20.2498 9.87548 18.9065 7.48439 16.5155C5.0933 14.1244 3.75 10.8813 3.75 7.49984C3.75012 6.40552 4.149 5.34874 4.872 4.52727C5.595 3.7058 6.59256 3.17594 7.678 3.03684C7.83909 3.01607 8.00254 3.04887 8.14314 3.1302C8.28374 3.21152 8.39368 3.33684 8.456 3.48684L10.341 7.88384C10.3899 7.99671 10.4102 8.11986 10.4003 8.24246C10.3904 8.36505 10.3504 8.48332 10.284 8.58684L8.72 10.9698C8.6505 11.0774 8.60969 11.2009 8.60147 11.3287C8.59324 11.4565 8.61787 11.5843 8.673 11.6998H8.672Z" stroke="#DADADA" stroke-width="1.5"/>
</g>
</svg>
