<svg width="75" height="127" viewBox="0 0 75 127" fill="none" xmlns="http://www.w3.org/2000/svg">
<path id="Vector (Stroke)" fill-rule="evenodd" clip-rule="evenodd" d="M4.54416 4.50858C7.45158 1.62015 11.3919 0 15.4974 0H59.5026C63.6081 0 67.5484 1.62015 70.4558 4.50858C73.3637 7.39749 75 11.3187 75 15.4105V111.59C75 115.681 73.3637 119.603 70.4558 122.491C67.5484 125.38 63.6081 127 59.5026 127H15.4974C11.3919 127 7.45158 125.38 4.54416 122.491C1.63626 119.603 0 115.681 0 111.59V15.4105C0 11.3187 1.63626 7.39749 4.54416 4.50858ZM15.4974 4.59036C12.6005 4.59036 9.82507 5.73379 7.78095 7.76455C5.73732 9.79484 4.59184 12.5455 4.59184 15.4105V111.59C4.59184 114.455 5.73732 117.205 7.78095 119.235C9.82507 121.266 12.6005 122.41 15.4974 122.41H59.5026C62.3995 122.41 65.1749 121.266 67.219 119.235C69.2627 117.205 70.4082 114.455 70.4082 111.59V15.4105C70.4082 12.5455 69.2627 9.79484 67.219 7.76455C65.1749 5.73379 62.3995 4.59036 59.5026 4.59036H48.5969V11.0387C48.5969 12.3063 47.569 13.3339 46.301 13.3339H28.699C27.431 13.3339 26.4031 12.3063 26.4031 11.0387V4.59036H15.4974ZM30.9949 4.59036V8.74355H44.0051V4.59036H30.9949ZM26.4031 111.59C26.4031 110.322 27.431 109.294 28.699 109.294H46.301C47.569 109.294 48.5969 110.322 48.5969 111.59C48.5969 112.857 47.569 113.885 46.301 113.885H28.699C27.431 113.885 26.4031 112.857 26.4031 111.59Z" fill="#06B906"/>
</svg>
